<svg xmlns="http://www.w3.org/2000/svg" viewBox="0 0 192 192" width="192" height="192">
  <defs>
    <linearGradient id="grad1" x1="0%" y1="0%" x2="100%" y2="100%">
      <stop offset="0%" style="stop-color:#8B5CF6;stop-opacity:1" />
      <stop offset="100%" style="stop-color:#EC4899;stop-opacity:1" />
    </linearGradient>
    <linearGradient id="grad2" x1="0%" y1="0%" x2="100%" y2="100%">
      <stop offset="0%" style="stop-color:#3B82F6;stop-opacity:1" />
      <stop offset="100%" style="stop-color:#8B5CF6;stop-opacity:1" />
    </linearGradient>
  </defs>
  
  <!-- Fondo circular -->
  <circle cx="96" cy="96" r="90" fill="url(#grad1)" stroke="#ffffff" stroke-width="6"/>
  
  <!-- Controlador de juego -->
  <g transform="translate(96,96)">
    <!-- Cuerpo del controlador -->
    <rect x="-42" y="-16" width="84" height="32" rx="16" ry="16" fill="url(#grad2)"/>
    
    <!-- Botones izquierdos (D-pad) -->
    <rect x="-34" y="-8" width="16" height="6" rx="3" fill="#ffffff" opacity="0.9"/>
    <rect x="-29" y="-13" width="6" height="16" rx="3" fill="#ffffff" opacity="0.9"/>
    
    <!-- Botones derechos -->
    <circle cx="26" cy="-8" r="4" fill="#ffffff" opacity="0.9"/>
    <circle cx="34" cy="0" r="4" fill="#ffffff" opacity="0.9"/>
    <circle cx="26" cy="8" r="4" fill="#ffffff" opacity="0.9"/>
    <circle cx="18" cy="0" r="4" fill="#ffffff" opacity="0.9"/>
    
    <!-- Joysticks -->
    <circle cx="-10" cy="6" r="5" fill="#ffffff" opacity="0.8"/>
    <circle cx="10" cy="6" r="5" fill="#ffffff" opacity="0.8"/>
    
    <!-- Pequeños detalles -->
    <rect x="-6" y="-10" width="12" height="3" rx="1.5" fill="#ffffff" opacity="0.6"/>
  </g>
  
  <!-- Destellos -->
  <circle cx="60" cy="60" r="3" fill="#ffffff" opacity="0.7"/>
  <circle cx="140" cy="46" r="2" fill="#ffffff" opacity="0.5"/>
  <circle cx="34" cy="140" r="1.5" fill="#ffffff" opacity="0.6"/>
</svg> 